<mxfile host="app.diagrams.net" modified="2023-11-12T10:32:23.453Z" agent="Mozilla/5.0 (Windows NT 10.0; Win64; x64) AppleWebKit/537.36 (KHTML, like Gecko) Chrome/119.0.0.0 Safari/537.36" etag="RQa2t8zQNI8ZpFsFgAAx" version="22.1.0" type="github">
  <diagram name="Page-1" id="0783ab3e-0a74-02c8-0abd-f7b4e66b4bec">
    <mxGraphModel dx="2044" dy="2928" grid="1" gridSize="10" guides="1" tooltips="1" connect="1" arrows="1" fold="1" page="1" pageScale="1" pageWidth="850" pageHeight="1100" background="none" math="0" shadow="0">
      <root>
        <mxCell id="0" />
        <mxCell id="1" parent="0" />
        <mxCell id="sc3NQHBNWfCJdYYZFbGi-16" value="loop-paldform" style="swimlane;whiteSpace=wrap;html=1;fillColor=#EBEBEB;" vertex="1" parent="1">
          <mxGeometry x="-170" y="-1120" width="1010" height="820" as="geometry" />
        </mxCell>
        <mxCell id="sc3NQHBNWfCJdYYZFbGi-40" value="&amp;laquo;Annotation&amp;raquo;&lt;br/&gt;&lt;b&gt;Component&lt;/b&gt;" style="html=1;dropTarget=0;whiteSpace=wrap;fillColor=#ffcd28;gradientColor=#ffa500;strokeColor=#d79b00;" vertex="1" parent="sc3NQHBNWfCJdYYZFbGi-16">
          <mxGeometry x="560" y="510" width="180" height="90" as="geometry" />
        </mxCell>
        <mxCell id="sc3NQHBNWfCJdYYZFbGi-41" value="" style="shape=module;jettyWidth=8;jettyHeight=4;" vertex="1" parent="sc3NQHBNWfCJdYYZFbGi-40">
          <mxGeometry x="1" width="20" height="20" relative="1" as="geometry">
            <mxPoint x="-27" y="7" as="offset" />
          </mxGeometry>
        </mxCell>
        <mxCell id="sc3NQHBNWfCJdYYZFbGi-42" value="&amp;laquo;Annotation&amp;raquo;&lt;br/&gt;&lt;b&gt;Component&lt;/b&gt;" style="html=1;dropTarget=0;whiteSpace=wrap;fillColor=#ffcd28;gradientColor=#ffa500;strokeColor=#d79b00;" vertex="1" parent="sc3NQHBNWfCJdYYZFbGi-16">
          <mxGeometry x="380" y="510" width="180" height="90" as="geometry" />
        </mxCell>
        <mxCell id="sc3NQHBNWfCJdYYZFbGi-43" value="" style="shape=module;jettyWidth=8;jettyHeight=4;" vertex="1" parent="sc3NQHBNWfCJdYYZFbGi-42">
          <mxGeometry x="1" width="20" height="20" relative="1" as="geometry">
            <mxPoint x="-27" y="7" as="offset" />
          </mxGeometry>
        </mxCell>
        <mxCell id="sc3NQHBNWfCJdYYZFbGi-44" value="&amp;laquo;Annotation&amp;raquo;&lt;br/&gt;&lt;b&gt;Component&lt;/b&gt;" style="html=1;dropTarget=0;whiteSpace=wrap;fillColor=#ffcd28;gradientColor=#ffa500;strokeColor=#d79b00;" vertex="1" parent="sc3NQHBNWfCJdYYZFbGi-16">
          <mxGeometry x="200" y="510" width="180" height="90" as="geometry" />
        </mxCell>
        <mxCell id="sc3NQHBNWfCJdYYZFbGi-45" value="" style="shape=module;jettyWidth=8;jettyHeight=4;" vertex="1" parent="sc3NQHBNWfCJdYYZFbGi-44">
          <mxGeometry x="1" width="20" height="20" relative="1" as="geometry">
            <mxPoint x="-27" y="7" as="offset" />
          </mxGeometry>
        </mxCell>
        <mxCell id="sc3NQHBNWfCJdYYZFbGi-46" value="Vertical Container" style="swimlane;whiteSpace=wrap;html=1;fillColor=#ffcd28;gradientColor=#ffa500;strokeColor=#d79b00;" vertex="1" parent="sc3NQHBNWfCJdYYZFbGi-16">
          <mxGeometry x="185" y="610" width="560" height="200" as="geometry" />
        </mxCell>
        <mxCell id="sc3NQHBNWfCJdYYZFbGi-47" value="&amp;laquo;Annotation&amp;raquo;&lt;br/&gt;&lt;b&gt;Component&lt;/b&gt;" style="html=1;dropTarget=0;whiteSpace=wrap;fillColor=#ffcd28;gradientColor=#ffa500;strokeColor=#d79b00;" vertex="1" parent="sc3NQHBNWfCJdYYZFbGi-46">
          <mxGeometry x="375" y="55" width="180" height="90" as="geometry" />
        </mxCell>
        <mxCell id="sc3NQHBNWfCJdYYZFbGi-48" value="" style="shape=module;jettyWidth=8;jettyHeight=4;" vertex="1" parent="sc3NQHBNWfCJdYYZFbGi-47">
          <mxGeometry x="1" width="20" height="20" relative="1" as="geometry">
            <mxPoint x="-27" y="7" as="offset" />
          </mxGeometry>
        </mxCell>
        <mxCell id="sc3NQHBNWfCJdYYZFbGi-49" value="&amp;laquo;Annotation&amp;raquo;&lt;br/&gt;&lt;b&gt;Component&lt;/b&gt;" style="html=1;dropTarget=0;whiteSpace=wrap;fillColor=#ffcd28;gradientColor=#ffa500;strokeColor=#d79b00;" vertex="1" parent="sc3NQHBNWfCJdYYZFbGi-46">
          <mxGeometry x="190" y="55" width="180" height="90" as="geometry" />
        </mxCell>
        <mxCell id="sc3NQHBNWfCJdYYZFbGi-50" value="" style="shape=module;jettyWidth=8;jettyHeight=4;" vertex="1" parent="sc3NQHBNWfCJdYYZFbGi-49">
          <mxGeometry x="1" width="20" height="20" relative="1" as="geometry">
            <mxPoint x="-27" y="7" as="offset" />
          </mxGeometry>
        </mxCell>
        <mxCell id="sc3NQHBNWfCJdYYZFbGi-51" value="-+++++" style="html=1;dropTarget=0;whiteSpace=wrap;fillColor=#ffcd28;gradientColor=#ffa500;strokeColor=#d79b00;" vertex="1" parent="sc3NQHBNWfCJdYYZFbGi-46">
          <mxGeometry x="10" y="55" width="180" height="90" as="geometry" />
        </mxCell>
        <mxCell id="sc3NQHBNWfCJdYYZFbGi-52" value="" style="shape=module;jettyWidth=8;jettyHeight=4;" vertex="1" parent="sc3NQHBNWfCJdYYZFbGi-51">
          <mxGeometry x="1" width="20" height="20" relative="1" as="geometry">
            <mxPoint x="-27" y="7" as="offset" />
          </mxGeometry>
        </mxCell>
        <mxCell id="sc3NQHBNWfCJdYYZFbGi-53" value="back_end" style="swimlane;whiteSpace=wrap;html=1;fillColor=#ffcd28;gradientColor=#ffa500;strokeColor=#d79b00;" vertex="1" parent="sc3NQHBNWfCJdYYZFbGi-16">
          <mxGeometry x="170" y="30" width="570" height="230" as="geometry" />
        </mxCell>
        <mxCell id="sc3NQHBNWfCJdYYZFbGi-19" value="&amp;laquo;Annotation&amp;raquo;&lt;br/&gt;&lt;b&gt;Component&lt;/b&gt;" style="html=1;dropTarget=0;whiteSpace=wrap;fillColor=#ffcd28;gradientColor=#ffa500;strokeColor=#d79b00;" vertex="1" parent="sc3NQHBNWfCJdYYZFbGi-53">
          <mxGeometry x="195" y="30" width="180" height="90" as="geometry" />
        </mxCell>
        <mxCell id="sc3NQHBNWfCJdYYZFbGi-20" value="" style="shape=module;jettyWidth=8;jettyHeight=4;" vertex="1" parent="sc3NQHBNWfCJdYYZFbGi-19">
          <mxGeometry x="1" width="20" height="20" relative="1" as="geometry">
            <mxPoint x="-27" y="7" as="offset" />
          </mxGeometry>
        </mxCell>
        <mxCell id="sc3NQHBNWfCJdYYZFbGi-17" value="&amp;laquo;Annotation&amp;raquo;&lt;br/&gt;&lt;b&gt;Component&lt;/b&gt;" style="html=1;dropTarget=0;whiteSpace=wrap;fillColor=#ffcd28;gradientColor=#ffa500;strokeColor=#d79b00;" vertex="1" parent="sc3NQHBNWfCJdYYZFbGi-53">
          <mxGeometry x="380" y="30" width="180" height="90" as="geometry" />
        </mxCell>
        <mxCell id="sc3NQHBNWfCJdYYZFbGi-18" value="" style="shape=module;jettyWidth=8;jettyHeight=4;" vertex="1" parent="sc3NQHBNWfCJdYYZFbGi-17">
          <mxGeometry x="1" width="20" height="20" relative="1" as="geometry">
            <mxPoint x="-27" y="7" as="offset" />
          </mxGeometry>
        </mxCell>
        <mxCell id="sc3NQHBNWfCJdYYZFbGi-25" value="&amp;laquo;Annotation&amp;raquo;&lt;br/&gt;&lt;b&gt;Component&lt;/b&gt;" style="html=1;dropTarget=0;whiteSpace=wrap;fillColor=#ffcd28;gradientColor=#ffa500;strokeColor=#d79b00;" vertex="1" parent="sc3NQHBNWfCJdYYZFbGi-53">
          <mxGeometry x="10" y="30" width="180" height="90" as="geometry" />
        </mxCell>
        <mxCell id="sc3NQHBNWfCJdYYZFbGi-26" value="" style="shape=module;jettyWidth=8;jettyHeight=4;" vertex="1" parent="sc3NQHBNWfCJdYYZFbGi-25">
          <mxGeometry x="1" width="20" height="20" relative="1" as="geometry">
            <mxPoint x="-27" y="7" as="offset" />
          </mxGeometry>
        </mxCell>
        <mxCell id="sc3NQHBNWfCJdYYZFbGi-23" value="&amp;laquo;Annotation&amp;raquo;&lt;br/&gt;&lt;b&gt;Component&lt;/b&gt;" style="html=1;dropTarget=0;whiteSpace=wrap;fillColor=#ffcd28;gradientColor=#ffa500;strokeColor=#d79b00;" vertex="1" parent="sc3NQHBNWfCJdYYZFbGi-53">
          <mxGeometry x="380" y="130" width="180" height="90" as="geometry" />
        </mxCell>
        <mxCell id="sc3NQHBNWfCJdYYZFbGi-24" value="" style="shape=module;jettyWidth=8;jettyHeight=4;" vertex="1" parent="sc3NQHBNWfCJdYYZFbGi-23">
          <mxGeometry x="1" width="20" height="20" relative="1" as="geometry">
            <mxPoint x="-27" y="7" as="offset" />
          </mxGeometry>
        </mxCell>
        <mxCell id="sc3NQHBNWfCJdYYZFbGi-21" value="&amp;laquo;Annotation&amp;raquo;&lt;br/&gt;&lt;b&gt;Component&lt;/b&gt;" style="html=1;dropTarget=0;whiteSpace=wrap;fillColor=#ffcd28;gradientColor=#ffa500;strokeColor=#d79b00;" vertex="1" parent="sc3NQHBNWfCJdYYZFbGi-53">
          <mxGeometry x="195" y="130" width="180" height="90" as="geometry" />
        </mxCell>
        <mxCell id="sc3NQHBNWfCJdYYZFbGi-22" value="" style="shape=module;jettyWidth=8;jettyHeight=4;" vertex="1" parent="sc3NQHBNWfCJdYYZFbGi-21">
          <mxGeometry x="1" width="20" height="20" relative="1" as="geometry">
            <mxPoint x="-27" y="7" as="offset" />
          </mxGeometry>
        </mxCell>
        <mxCell id="sc3NQHBNWfCJdYYZFbGi-27" value="&amp;laquo;Annotation&amp;raquo;&lt;br/&gt;&lt;b&gt;Component&lt;/b&gt;" style="html=1;dropTarget=0;whiteSpace=wrap;fillColor=#ffcd28;gradientColor=#ffa500;strokeColor=#d79b00;" vertex="1" parent="sc3NQHBNWfCJdYYZFbGi-53">
          <mxGeometry x="10" y="130" width="180" height="90" as="geometry" />
        </mxCell>
        <mxCell id="sc3NQHBNWfCJdYYZFbGi-28" value="" style="shape=module;jettyWidth=8;jettyHeight=4;" vertex="1" parent="sc3NQHBNWfCJdYYZFbGi-27">
          <mxGeometry x="1" width="20" height="20" relative="1" as="geometry">
            <mxPoint x="-27" y="7" as="offset" />
          </mxGeometry>
        </mxCell>
        <mxCell id="sc3NQHBNWfCJdYYZFbGi-29" value="wab" style="swimlane;whiteSpace=wrap;html=1;fillColor=#ffcd28;gradientColor=#ffa500;strokeColor=#d79b00;" vertex="1" parent="sc3NQHBNWfCJdYYZFbGi-16">
          <mxGeometry x="180" y="280" width="570" height="230" as="geometry" />
        </mxCell>
        <mxCell id="sc3NQHBNWfCJdYYZFbGi-36" value="&amp;laquo;Annotation&amp;raquo;&lt;br/&gt;&lt;b&gt;Component&lt;/b&gt;" style="html=1;dropTarget=0;whiteSpace=wrap;fillColor=#ffcd28;gradientColor=#ffa500;strokeColor=#d79b00;" vertex="1" parent="sc3NQHBNWfCJdYYZFbGi-29">
          <mxGeometry x="400" y="30" width="180" height="90" as="geometry" />
        </mxCell>
        <mxCell id="sc3NQHBNWfCJdYYZFbGi-37" value="" style="shape=module;jettyWidth=8;jettyHeight=4;" vertex="1" parent="sc3NQHBNWfCJdYYZFbGi-36">
          <mxGeometry x="1" width="20" height="20" relative="1" as="geometry">
            <mxPoint x="-27" y="7" as="offset" />
          </mxGeometry>
        </mxCell>
        <mxCell id="sc3NQHBNWfCJdYYZFbGi-34" value="&amp;laquo;Annotation&amp;raquo;&lt;br/&gt;&lt;b&gt;Component&lt;/b&gt;" style="html=1;dropTarget=0;whiteSpace=wrap;fillColor=#ffcd28;gradientColor=#ffa500;strokeColor=#d79b00;" vertex="1" parent="sc3NQHBNWfCJdYYZFbGi-29">
          <mxGeometry x="220" y="30" width="180" height="90" as="geometry" />
        </mxCell>
        <mxCell id="sc3NQHBNWfCJdYYZFbGi-35" value="" style="shape=module;jettyWidth=8;jettyHeight=4;" vertex="1" parent="sc3NQHBNWfCJdYYZFbGi-34">
          <mxGeometry x="1" width="20" height="20" relative="1" as="geometry">
            <mxPoint x="-27" y="7" as="offset" />
          </mxGeometry>
        </mxCell>
        <mxCell id="sc3NQHBNWfCJdYYZFbGi-32" value="&amp;laquo;Annotation&amp;raquo;&lt;br/&gt;&lt;b&gt;Component&lt;/b&gt;" style="html=1;dropTarget=0;whiteSpace=wrap;fillColor=#ffcd28;gradientColor=#ffa500;strokeColor=#d79b00;" vertex="1" parent="sc3NQHBNWfCJdYYZFbGi-29">
          <mxGeometry x="20" y="30" width="180" height="90" as="geometry" />
        </mxCell>
        <mxCell id="sc3NQHBNWfCJdYYZFbGi-33" value="" style="shape=module;jettyWidth=8;jettyHeight=4;" vertex="1" parent="sc3NQHBNWfCJdYYZFbGi-32">
          <mxGeometry x="1" width="20" height="20" relative="1" as="geometry">
            <mxPoint x="-27" y="7" as="offset" />
          </mxGeometry>
        </mxCell>
        <mxCell id="sc3NQHBNWfCJdYYZFbGi-30" value="&amp;laquo;Annotation&amp;raquo;&lt;br/&gt;&lt;b&gt;Component&lt;/b&gt;" style="html=1;dropTarget=0;whiteSpace=wrap;fillColor=#ffcd28;gradientColor=#ffa500;strokeColor=#d79b00;" vertex="1" parent="sc3NQHBNWfCJdYYZFbGi-29">
          <mxGeometry x="20" y="130" width="180" height="90" as="geometry" />
        </mxCell>
        <mxCell id="sc3NQHBNWfCJdYYZFbGi-31" value="" style="shape=module;jettyWidth=8;jettyHeight=4;" vertex="1" parent="sc3NQHBNWfCJdYYZFbGi-30">
          <mxGeometry x="1" width="20" height="20" relative="1" as="geometry">
            <mxPoint x="-27" y="7" as="offset" />
          </mxGeometry>
        </mxCell>
        <mxCell id="sc3NQHBNWfCJdYYZFbGi-38" value="&amp;laquo;Annotation&amp;raquo;&lt;br/&gt;&lt;b&gt;Component&lt;/b&gt;" style="html=1;dropTarget=0;whiteSpace=wrap;fillColor=#ffcd28;gradientColor=#ffa500;strokeColor=#d79b00;" vertex="1" parent="sc3NQHBNWfCJdYYZFbGi-29">
          <mxGeometry x="220" y="130" width="180" height="90" as="geometry" />
        </mxCell>
        <mxCell id="sc3NQHBNWfCJdYYZFbGi-39" value="" style="shape=module;jettyWidth=8;jettyHeight=4;" vertex="1" parent="sc3NQHBNWfCJdYYZFbGi-38">
          <mxGeometry x="1" width="20" height="20" relative="1" as="geometry">
            <mxPoint x="-27" y="7" as="offset" />
          </mxGeometry>
        </mxCell>
        <mxCell id="sc3NQHBNWfCJdYYZFbGi-14" value="front end" style="swimlane;whiteSpace=wrap;html=1;" vertex="1" parent="sc3NQHBNWfCJdYYZFbGi-16">
          <mxGeometry y="60" width="170" height="620" as="geometry">
            <mxRectangle x="-20" y="-1070" width="140" height="30" as="alternateBounds" />
          </mxGeometry>
        </mxCell>
        <mxCell id="sc3NQHBNWfCJdYYZFbGi-57" value="&amp;laquo;interface&amp;raquo;&lt;br&gt;&lt;b&gt;Name&lt;/b&gt;" style="html=1;whiteSpace=wrap;fillColor=#d5e8d4;gradientColor=#97d077;strokeColor=#82b366;" vertex="1" parent="sc3NQHBNWfCJdYYZFbGi-14">
          <mxGeometry x="30" y="110" width="110" height="50" as="geometry" />
        </mxCell>
        <mxCell id="sc3NQHBNWfCJdYYZFbGi-62" value="&amp;laquo;interface&amp;raquo;&lt;br&gt;&lt;b&gt;Name&lt;/b&gt;" style="html=1;whiteSpace=wrap;fillColor=#d5e8d4;gradientColor=#97d077;strokeColor=#82b366;" vertex="1" parent="sc3NQHBNWfCJdYYZFbGi-14">
          <mxGeometry x="35" y="180" width="110" height="50" as="geometry" />
        </mxCell>
        <mxCell id="sc3NQHBNWfCJdYYZFbGi-61" value="&amp;laquo;interface&amp;raquo;&lt;br&gt;&lt;b&gt;Name&lt;/b&gt;" style="html=1;whiteSpace=wrap;fillColor=#d5e8d4;gradientColor=#97d077;strokeColor=#82b366;" vertex="1" parent="sc3NQHBNWfCJdYYZFbGi-14">
          <mxGeometry x="35" y="250" width="110" height="50" as="geometry" />
        </mxCell>
        <mxCell id="sc3NQHBNWfCJdYYZFbGi-60" value="&amp;laquo;interface&amp;raquo;&lt;br&gt;&lt;b&gt;Name&lt;/b&gt;" style="html=1;whiteSpace=wrap;fillColor=#d5e8d4;gradientColor=#97d077;strokeColor=#82b366;" vertex="1" parent="sc3NQHBNWfCJdYYZFbGi-14">
          <mxGeometry x="35" y="320" width="110" height="50" as="geometry" />
        </mxCell>
        <mxCell id="sc3NQHBNWfCJdYYZFbGi-59" value="&amp;laquo;interface&amp;raquo;&lt;br&gt;&lt;b&gt;Name&lt;/b&gt;" style="html=1;whiteSpace=wrap;fillColor=#d5e8d4;gradientColor=#97d077;strokeColor=#82b366;" vertex="1" parent="sc3NQHBNWfCJdYYZFbGi-14">
          <mxGeometry x="35" y="430" width="110" height="50" as="geometry" />
        </mxCell>
        <mxCell id="sc3NQHBNWfCJdYYZFbGi-63" value="&amp;laquo;interface&amp;raquo;&lt;br&gt;&lt;b&gt;Name&lt;/b&gt;" style="html=1;whiteSpace=wrap;fillColor=#d5e8d4;gradientColor=#97d077;strokeColor=#82b366;" vertex="1" parent="sc3NQHBNWfCJdYYZFbGi-14">
          <mxGeometry x="35" y="480" width="110" height="50" as="geometry" />
        </mxCell>
        <mxCell id="sc3NQHBNWfCJdYYZFbGi-64" value="&amp;laquo;interface&amp;raquo;&lt;br&gt;&lt;b&gt;Name&lt;/b&gt;" style="html=1;whiteSpace=wrap;fillColor=#d5e8d4;gradientColor=#97d077;strokeColor=#82b366;" vertex="1" parent="sc3NQHBNWfCJdYYZFbGi-14">
          <mxGeometry x="30" y="40" width="110" height="50" as="geometry" />
        </mxCell>
        <mxCell id="sc3NQHBNWfCJdYYZFbGi-54" value="Vertical Container" style="swimlane;whiteSpace=wrap;html=1;fillColor=#ffcd28;gradientColor=#ffa500;strokeColor=#d79b00;" vertex="1" parent="1">
          <mxGeometry x="584" y="-1075" width="230" height="755" as="geometry" />
        </mxCell>
      </root>
    </mxGraphModel>
  </diagram>
</mxfile>
